<?xml version="1.0" encoding="UTF-8"?>
<svg xmlns="http://www.w3.org/2000/svg" width="163" height="30" viewBox="0 0 163 30" fill="none">
  <path d="M91.1492 22.143H94.6464V8.95158H91.1492V22.143ZM91.1492 6.89447H94.6464V3.75732H91.1492V6.89447Z" fill="white"></path>
  <path d="M96.8999 26.4628H100.397V20.6513H100.448C101.194 21.7828 102.403 22.5285 104.254 22.5285C107.648 22.5285 109.963 19.8285 109.963 15.5599C109.963 11.4456 107.725 8.59131 104.228 8.59131C102.428 8.59131 101.194 9.43993 100.345 10.597H100.268V8.95131H96.8999V26.4628ZM103.508 19.6228C101.425 19.6228 100.32 18.0542 100.32 15.6628C100.32 13.297 101.194 11.4199 103.38 11.4199C105.54 11.4199 106.414 13.1685 106.414 15.6628C106.414 18.157 105.283 19.6228 103.508 19.6228Z" fill="white"></path>
  <path d="M116.937 22.5285C120.229 22.5285 122.491 20.9342 122.491 18.2856C122.491 15.1999 120.049 14.5828 117.837 14.1199C115.96 13.7342 114.211 13.6313 114.211 12.4999C114.211 11.5485 115.111 11.0342 116.474 11.0342C117.966 11.0342 118.866 11.5485 119.02 12.9628H122.182C121.926 10.3142 119.997 8.59131 116.526 8.59131C113.517 8.59131 111.151 9.95421 111.151 12.8085C111.151 15.6885 113.466 16.3313 115.831 16.7942C117.631 17.1542 119.302 17.2828 119.302 18.5428C119.302 19.4685 118.429 20.0599 116.886 20.0599C115.317 20.0599 114.237 19.3913 114.006 17.8742H110.766C110.971 20.677 113.106 22.5285 116.937 22.5285Z" fill="white"></path>
  <path d="M135.773 22.1431V8.95166H132.276V16.5631C132.276 18.3117 131.273 19.5459 129.627 19.5459C128.136 19.5459 127.442 18.6974 127.442 17.1546V8.95166H123.97V17.7459C123.97 20.6259 125.616 22.5031 128.547 22.5031C130.399 22.5031 131.427 21.8088 132.327 20.6003H132.405V22.1431H135.773Z" fill="white"></path>
  <path d="M138.033 22.1428H141.53V14.4799C141.53 12.7313 142.482 11.5999 143.896 11.5999C145.182 11.5999 145.927 12.3713 145.927 13.8628V22.1428H149.424V14.4799C149.424 12.7313 150.324 11.5999 151.79 11.5999C153.076 11.5999 153.822 12.3713 153.822 13.8628V22.1428H157.319V13.2713C157.319 10.3913 155.75 8.59131 152.973 8.59131C151.302 8.59131 149.913 9.46558 149.013 10.9056H148.962C148.319 9.51703 146.982 8.59131 145.31 8.59131C143.484 8.59131 142.199 9.51703 141.479 10.7256H141.402V8.95131H138.033V22.1428Z" fill="white"></path>
  <path d="M0 22.143H3.49714V3.75732H0V22.143Z" fill="white"></path>
  <path d="M12.0477 22.5285C16.1363 22.5285 18.9391 19.4942 18.9391 15.5599C18.9391 11.6256 16.1363 8.59131 12.0477 8.59131C7.95909 8.59131 5.15625 11.6256 5.15625 15.5599C5.15625 19.4942 7.95909 22.5285 12.0477 22.5285ZM12.0477 19.8542C9.88771 19.8542 8.70481 18.1313 8.70481 15.5599C8.70481 12.9885 9.88771 11.2399 12.0477 11.2399C14.182 11.2399 15.3905 12.9885 15.3905 15.5599C15.3905 18.1313 14.182 19.8542 12.0477 19.8542Z" fill="white"></path>
  <path d="M26.3761 26.6428C28.3304 26.6428 30.0276 26.1799 31.1332 25.1513C32.1104 24.2513 32.7019 22.9913 32.7019 21.1399V8.95131H29.3333V10.3399H29.2819C28.4847 9.23421 27.2761 8.59131 25.6304 8.59131C22.2876 8.59131 19.9219 11.1113 19.9219 15.0456C19.9219 19.0313 22.8019 21.3456 25.7333 21.3456C27.4047 21.3456 28.4076 20.677 29.179 19.8028H29.2561V21.2428C29.2561 23.0428 28.3047 23.9942 26.3247 23.9942C24.7047 23.9942 23.959 23.3513 23.6762 22.5285H20.2047C20.5647 25.0999 22.7761 26.6428 26.3761 26.6428ZM26.3247 18.5428C24.5247 18.5428 23.3419 17.2313 23.3419 14.9942C23.3419 12.7828 24.5247 11.3942 26.299 11.3942C28.4076 11.3942 29.4361 13.0399 29.4361 14.9685C29.4361 16.9228 28.5361 18.5428 26.3247 18.5428Z" fill="white"></path>
  <path d="M41.2037 22.5285C45.2923 22.5285 48.0952 19.4942 48.0952 15.5599C48.0952 11.6256 45.2923 8.59131 41.2037 8.59131C37.1152 8.59131 34.3123 11.6256 34.3123 15.5599C34.3123 19.4942 37.1152 22.5285 41.2037 22.5285ZM41.2037 19.8542C39.0437 19.8542 37.8609 18.1313 37.8609 15.5599C37.8609 12.9885 39.0437 11.2399 41.2037 11.2399C43.338 11.2399 44.5466 12.9885 44.5466 15.5599C44.5466 18.1313 43.338 19.8542 41.2037 19.8542Z" fill="white"></path>
  <path d="M158.59 6.78627C158.59 6.19454 159.07 5.71484 159.661 5.71484H161.804C162.396 5.71484 162.876 6.19454 162.876 6.78627C162.876 7.37801 162.396 7.85771 161.804 7.85771H159.661C159.07 7.85771 158.59 7.37801 158.59 6.78627Z" fill="white"></path>
  <path fill-rule="evenodd" clip-rule="evenodd" d="M69.3022 0C77.5862 0 84.3025 6.71573 84.3025 15C84.3025 23.2843 77.5862 30 69.3022 30C61.018 30 54.3022 23.2843 54.3022 15C54.3022 6.71573 61.018 0 69.3022 0ZM68.7601 1.12244C67.0488 1.36327 65.4193 2.73831 64.1545 5.03805C63.7876 5.70512 63.4565 6.4421 63.1681 7.23783C64.888 6.80563 66.7773 6.55082 68.7601 6.5114V1.12244ZM61.9003 7.5981C62.2591 6.47219 62.6979 5.4363 63.2044 4.51549C63.8314 3.37544 64.5755 2.39096 65.4139 1.63483C60.8548 2.95892 57.2611 6.55259 55.937 11.1118C56.6932 10.2733 57.6776 9.5292 58.8177 8.9022C59.7385 8.39573 60.7744 7.95683 61.9003 7.5981ZM61.54 8.86583C61.1078 10.5857 60.853 12.475 60.8136 14.4578H55.4246C55.6654 12.7465 57.0405 11.1171 59.3403 9.8523C60.0073 9.4854 60.7443 9.15435 61.54 8.86583ZM61.8982 14.4578C61.9429 12.294 62.2545 10.2626 62.7699 8.46765C64.5648 7.95225 66.5962 7.6407 68.7601 7.59593V9.9381C67.9528 12.0047 66.3064 13.6509 64.2398 14.4578H61.8982ZM60.8136 15.5422H55.4246C55.6654 17.2535 57.0405 18.8828 59.3403 20.1477C60.0073 20.5146 60.7443 20.8456 61.54 21.1342C61.1078 19.4143 60.853 17.525 60.8136 15.5422ZM62.7699 21.5324C62.2545 19.7375 61.9429 17.706 61.8982 15.5422H64.2398C66.3064 16.3491 67.9528 17.9954 68.7601 20.0619V22.4041C66.5962 22.3593 64.5648 22.0478 62.7699 21.5324ZM61.9003 22.4019C60.7744 22.0432 59.7385 21.6043 58.8177 21.0978C57.6776 20.4708 56.6932 19.7266 55.937 18.8882C57.2611 23.4474 60.8548 27.0411 65.4139 28.3652C64.5755 27.609 63.8314 26.6246 63.2044 25.4845C62.6979 24.5637 62.2591 23.5278 61.9003 22.4019ZM68.7601 28.8775C67.0488 28.6367 65.4193 27.2617 64.1545 24.962C63.7876 24.2949 63.4565 23.5579 63.1681 22.7622C64.888 23.1943 66.7773 23.4492 68.7601 23.4886V28.8775ZM73.1905 28.3652C74.0289 27.609 74.773 26.6246 75.4 25.4845C75.9062 24.5637 76.3457 23.5278 76.7042 22.4019C77.83 22.0432 78.8657 21.6043 79.7867 21.0978C80.9267 20.4708 81.9115 19.7266 82.6675 18.8882C81.343 23.4474 77.7497 27.0411 73.1905 28.3652ZM75.4367 22.7622C75.148 23.5579 74.8165 24.2949 74.4497 24.962C73.1851 27.2617 71.5556 28.6367 69.8443 28.8775V23.4886C71.8271 23.4492 73.7164 23.1943 75.4367 22.7622ZM77.0642 21.1342C77.86 20.8456 78.5972 20.5146 79.264 20.1477C81.5642 18.8829 82.939 17.2535 83.1797 15.5422H77.791C77.7512 17.525 77.4962 19.4143 77.0642 21.1342ZM76.7065 15.5422C76.6615 17.706 76.3502 19.7375 75.8342 21.5324C74.0396 22.0478 72.0082 22.3593 69.8443 22.4041V20.0636C70.6513 17.9963 72.2981 16.3493 74.3653 15.5422H76.7065ZM77.791 14.4578H83.1797C82.939 12.7465 81.5642 11.1171 79.264 9.8523C78.5972 9.4854 77.86 9.15435 77.0642 8.86583C77.4962 10.5857 77.7512 12.475 77.791 14.4578ZM75.8342 8.46765C76.3502 10.2626 76.6615 12.294 76.7065 14.4578H74.3653C72.2981 13.6507 70.6513 12.0037 69.8443 9.93637V7.59593C72.0082 7.6407 74.0396 7.95225 75.8342 8.46765ZM76.7042 7.5981C77.83 7.95683 78.8657 8.39573 79.7867 8.9022C80.9267 9.5292 81.9115 10.2733 82.6675 11.1118C81.343 6.55259 77.7497 2.95892 73.1905 1.63483C74.0289 2.39096 74.773 3.37544 75.4 4.51549C75.9062 5.4363 76.3457 6.47219 76.7042 7.5981ZM69.8443 1.12244C71.5556 1.36327 73.1851 2.73831 74.4497 5.03805C74.8165 5.70513 75.148 6.4421 75.4367 7.23783C73.7164 6.80563 71.8271 6.55082 69.8443 6.5114V1.12244Z" fill="white"></path>
</svg>
