<?xml version="1.0" encoding="UTF-8"?>
<svg xmlns="http://www.w3.org/2000/svg" width="30" height="30" viewBox="0 0 30 30">
  <path fill-rule="evenodd" d="M0 12a7.5 7.5 0 0 1 8.606-7.419 6.753 6.753 0 0 1 12.788 0A7.5 7.5 0 0 1 25.5 18.876v3.999h-21v-3.999A7.502 7.502 0 0 1 0 12Zm13.564 5.504c-1.317-.966-3.064-2.527-3.064-4.003 0-2.51 2.475-3.447 4.5-1.508 2.025-1.94 4.5-1.002 4.5 1.508 0 1.476-1.747 3.037-3.064 4.003-.63.462-.945.693-1.436.693s-.806-.231-1.436-.693Z" clip-rule="evenodd"></path>
  <path d="M5.379 29.121c-.754-.753-.861-1.9-.876-3.996h20.994c-.015 2.095-.122 3.243-.876 3.996C23.743 30 22.328 30 19.5 30h-9c-2.828 0-4.243 0-5.121-.879Z"></path>
</svg>
