<?xml version="1.0" encoding="UTF-8"?>
<svg xmlns="http://www.w3.org/2000/svg" width="26" height="30" viewBox="0 0 26 30">
  <path d="M3.534 27.619a10.891 10.891 0 0 0 4.559 2.266c.16.053.268-.157.16-.262-3.592-3.428-1.618-7.137-.16-8.81 1.04-1.194 2.52-3.16 2.412-5.797 0-.264.27-.476.483-.317 2.038 1.055 3.432 3.375 3.807 5.273.59-.58.805-1.476.805-2.267 0-.264.321-.475.59-.264 1.93 1.74 5.254 7.646-.108 12.285-.107.107 0 .318.108.266a13.142 13.142 0 0 0 4.504-2.163c8.74-6.75 3.056-18.72-.645-22.674-.482-.476-1.34-.159-1.34.526-.053 1.425-.482 3.006-1.607 4.06-.858-3.584-3.717-7.657-7.793-9.66-.535-.264-1.179.157-1.125.737.105 4.905-3.094 8.028-5.883 12.089-2.467 3.637-4.075 10.335 1.233 14.712Z"></path>
</svg>
