<?xml version="1.0" encoding="UTF-8"?>
<svg xmlns="http://www.w3.org/2000/svg" width="21" height="30" viewBox="0 0 21 30">
  <path d="M7.347 23.54c-.19.271-.311.602-.31.954-.001.351.12.682.31.954.288.41.714.706 1.214.914a4.512 4.512 0 0 0 1.703.318c.828 0 1.584-.199 2.176-.556.295-.18.55-.403.74-.676.192-.27.313-.603.312-.954a1.655 1.655 0 0 0-.311-.954c-.286-.41-.714-.708-1.213-.915a4.515 4.515 0 0 0-1.704-.318c-.828.001-1.584.2-2.175.557a2.43 2.43 0 0 0-.742.675Zm4.5.297c.187.112.32.238.4.352.078.116.105.21.105.305a.524.524 0 0 1-.106.304c-.116.17-.363.368-.712.51-.348.143-.79.233-1.27.233-.64.002-1.213-.163-1.584-.39a1.319 1.319 0 0 1-.397-.353.526.526 0 0 1-.108-.304.527.527 0 0 1 .108-.305c.116-.17.362-.367.711-.51.349-.142.79-.234 1.27-.233.64-.002 1.213.163 1.584.39Z"></path>
  <path d="M8.533 0A3.63 3.63 0 0 0 5.96 1.067 3.63 3.63 0 0 0 4.894 3.64a3.622 3.622 0 0 0 2.58 3.474v1.29l-.302.284c-.248.23-.534.483-.717.624-.954.74-1.836 1.426-2.634 2.189-1.197 1.139-2.196 2.476-2.845 4.31C.324 17.644 0 19.942 0 23.096c0 .336.004.682.011 1.037h.001c.004.927.375 1.79.959 2.501.44.542 1.001 1.013 1.651 1.423.976.614 2.16 1.095 3.485 1.427a18 18 0 0 0 4.347.516c2.756-.003 5.258-.572 7.151-1.554.946-.492 1.744-1.09 2.333-1.812.583-.712.955-1.574.959-2.502.007-.373.01-.736.01-1.086 0-2.224-.145-4.008-.435-5.497-.218-1.117-.519-2.069-.904-2.9-.576-1.247-1.344-2.212-2.22-3.037-.866-.817-1.83-1.51-2.874-2.284l-1.04-.943v-1.27a3.628 3.628 0 0 0 2.581-3.474 3.626 3.626 0 0 0-1.065-2.574 3.63 3.63 0 0 0-4.495-.512A3.617 3.617 0 0 0 8.533 0ZM4.35 14.287a.732.732 0 1 1 1.465 0 .732.732 0 0 1-1.465 0Zm12.584 6.76c.781.448 1.38.965 1.772 1.494.125.168.22.335.304.503v.002c0 .337-.004.687-.01 1.05l-.001.008v.01c-.001.43-.16.858-.533 1.322-.28.345-.682.694-1.191 1.014-.765.484-1.771.902-2.935 1.193a16.116 16.116 0 0 1-3.885.458c-2.487.003-4.731-.533-6.274-1.339-.772-.4-1.365-.865-1.737-1.326-.374-.464-.53-.893-.533-1.323v-.019a44.639 44.639 0 0 1-.01-.998v-.053c.083-.167.18-.334.304-.502.585-.793 1.646-1.559 3.068-2.109 1.42-.553 3.194-.895 5.182-.895 2.652 0 4.92.611 6.48 1.51ZM6.561 17.825a.595.595 0 1 1 1.19.001.595.595 0 0 1-1.19 0Zm11.361-.122a.64.64 0 1 1-1.281 0 .64.64 0 0 1 1.281 0Zm-5.764-2.44a.732.732 0 1 1-1.465 0 .732.732 0 0 1 1.465 0Zm3.904-1.708a.732.732 0 1 1-1.465 0 .732.732 0 0 1 1.465 0Zm-4.363-1.759a.568.568 0 1 1-1.136 0 .568.568 0 0 1 1.136 0Zm-.566-9.373a1.735 1.735 0 0 1 2.475-.014 1.735 1.735 0 0 1 .023 2.435 1.733 1.733 0 0 1-1.184.53l-.91.037v2.923a3.586 3.586 0 0 0-1.177-.218c-.349 0-.677.061-.987.162V5.411l-.911-.036a1.73 1.73 0 0 1-1.184-.531 1.721 1.721 0 0 1-.486-1.204c0-.484.194-.913.51-1.231a1.735 1.735 0 0 1 2.474.013l.679.693.678-.692Z"></path>
</svg>
